<?xml version="1.0" encoding="UTF-8"?>
<!DOCTYPE svg PUBLIC "-//W3C//DTD SVG 1.1//EN" "http://www.w3.org/Graphics/SVG/1.1/DTD/svg11.dtd">
<svg version="1.1" xmlns="http://www.w3.org/2000/svg" xmlns:xlink="http://www.w3.org/1999/xlink" x="0" y="0" width="902" height="907.5" viewBox="0, 0, 902, 907.5">
  <g id="Layer_1">
    <path d="M770.308,33.792 C765.864,35.371 761.222,37.026 756.376,38.753 C751.547,40.519 746.482,42.229 741.306,44.242 C736.158,46.305 730.823,48.45 725.307,50.661 C714.208,54.901 702.746,60.242 690.558,65.621 C684.414,68.222 678.37,71.407 672.061,74.421 C665.813,77.561 659.263,80.476 652.861,83.996 C649.616,85.663 646.36,87.373 643.076,89.122 L634.419,49.55 C640.568,47.531 646.728,45.623 652.921,43.846 C653.867,44.671 655.017,45.771 655.825,46.547 C660.258,50.782 664.449,54.791 670.065,54.791 C670.972,54.791 671.874,54.676 672.743,54.456 C680.157,52.564 682.137,45.089 683.738,39.083 C683.98,38.159 684.326,36.867 684.656,35.811 C706.282,31.163 728.744,28.903 753.203,28.903 C762.844,28.903 772.552,29.255 782.485,29.876 C778.602,31.108 774.466,32.274 770.308,33.792 M625.014,176.248 C622.105,177.095 613.58,177.106 608.366,177.106 C593.725,177.117 584.496,177.403 579.353,182.782 C571.367,191.142 579.326,201.691 584.595,208.67 C585.794,210.254 587.532,212.564 588.659,214.33 C578.462,225.412 568.502,236.665 558.651,247.979 L478.087,233.981 C486.244,226.914 494.439,220 502.672,213.318 C530.266,190.839 558.024,170.473 585.359,152.746 C612.623,134.921 639.149,119.235 664.372,106.161 C670.587,102.718 676.945,99.869 683.006,96.806 C689.122,93.858 694.991,90.739 700.947,88.193 C712.772,82.946 723.882,77.71 734.651,73.563 C739.997,71.396 745.167,69.3 750.167,67.276 C755.183,65.307 760.094,63.641 764.78,61.908 C766.65,61.232 768.465,60.566 770.269,59.912 C721.237,88.908 674.366,126.61 625.014,176.248 M541.277,268.191 L457.248,252.505 C462.242,247.951 467.252,243.447 472.29,239.014 L554.086,253.226 C549.791,258.198 545.517,263.186 541.277,268.191 M520.498,293.046 L431.579,276.65 C438.256,270.171 444.977,263.797 451.742,257.543 L536.86,273.422 C531.366,279.945 525.91,286.49 520.498,293.046 M492.805,327.162 L396.764,311.9 C399.844,308.649 402.946,305.415 406.054,302.214 L499.07,319.363 C496.974,321.97 494.884,324.566 492.805,327.162 M432.877,403.425 C422.455,416.812 412.175,430.018 402.05,442.921 L290.345,439.34 C307.62,416.042 325.748,393.058 344.487,370.601 C353.65,359.629 363,348.816 372.509,338.19 L471.548,353.931 C458.502,370.497 445.626,387.035 432.877,403.425 M374.561,477.56 L263.741,476.449 C267.432,471.141 271.144,465.839 274.912,460.554 C278.58,455.406 282.309,450.28 286.066,445.159 L397.479,448.729 C389.752,458.541 382.118,468.166 374.561,477.56 M332.062,528.523 L231.764,524.365 C240.735,510.378 250.03,496.353 259.644,482.367 L369.781,483.467 C356.983,499.263 344.421,514.36 332.062,528.523 M312.356,550.49 L218.185,545.897 C220.231,542.592 222.299,539.286 224.389,535.97 L321.904,540.023 C318.703,543.582 315.524,547.069 312.356,550.49 M450.499,630.212 C480.815,640.002 504.751,647.741 517.726,649.066 L518.259,649.127 L607.266,642.274 C613.244,657.481 633.424,715.781 617.655,774.989 L518.578,765.666 C519.189,762.135 519.711,758.241 520.129,754.314 C521.367,742.753 521.812,731.269 521.812,731.269 C521.812,731.269 518.413,742.291 514.343,752.934 C512.418,757.95 510.323,762.856 508.519,766.37 L507.573,767.8 C491.727,791.742 476.987,793.672 454.668,796.593 C445.61,797.781 435.347,799.123 423.78,802.175 C412.098,805.261 401.945,809.243 392.122,813.098 C373.114,820.556 355.162,827.596 327.833,827.602 C320.595,827.602 312.812,827.09 304.716,826.089 C292.627,824.588 280.791,823.856 268.543,823.856 C268.345,823.856 268.152,823.862 267.949,823.867 L267.91,823.79 L267.767,823.867 C250.53,823.906 235.664,825.363 221.287,826.771 C210.941,827.789 201.091,828.707 191.477,828.977 L186.433,815.073 L184.904,819.143 L185.52,829.081 C183.067,829.065 180.697,828.999 178.381,828.878 C178.145,824.137 174.74,813.566 174.608,810.926 L171.759,816.09 C171.952,819.968 172.205,824.533 172.397,828.416 C171.352,828.311 170.307,828.201 169.273,828.08 C159.659,826.859 148.61,826.243 136.427,826.243 C130.493,826.243 124.69,826.386 119.174,826.617 C117.117,820.584 113.212,809.732 110.654,806.185 C107.481,801.785 95.425,803.594 85.233,806.108 C85.882,804.568 86.537,803.011 87.197,801.449 C102.063,787.551 124.927,780.731 156.596,780.731 C166.237,780.731 175.351,781.341 182.209,781.864 L182.891,781.891 C183.133,781.891 183.408,781.853 183.672,781.831 C184.387,782.524 185.064,783.332 185.795,784.119 C186.521,784.944 187.297,785.763 187.957,786.566 C188.556,787.391 189.112,788.172 189.596,788.832 C190.575,790.246 191.235,791.192 191.235,791.192 C191.235,791.192 191.29,790.053 191.389,788.348 C191.427,787.463 191.466,786.418 191.51,785.307 C191.471,784.207 191.383,783.057 191.312,781.869 C191.246,781.127 191.202,780.39 191.141,779.653 C200.128,775.984 215.27,767.58 240.889,753.044 C261.481,741.362 282.705,729.328 293.293,725.076 C295.212,724.543 297.308,724.015 299.431,723.58 C302.94,722.854 306.498,722.409 309.05,722.689 C310.326,722.827 311.316,723.184 311.921,723.641 C312.526,724.103 312.697,724.592 312.73,724.57 C312.691,724.581 312.84,724.097 312.559,723.212 C312.273,722.343 311.459,721.193 310.249,720.17 C309.991,719.945 309.672,719.741 309.38,719.521 L310.937,718.999 L303.765,716.205 C302.681,715.682 301.57,715.176 300.443,714.703 C298.32,713.823 296.197,713.053 294.211,712.371 C281.941,706.503 265.094,686.202 257.977,676.665 C258.373,675.34 258.791,673.954 259.242,672.562 C260.243,669.477 261.36,666.402 262.498,664.356 C263.054,663.366 263.708,662.547 264.104,662.756 C264.594,663.036 264.704,663.597 264.737,663.548 C264.737,663.548 264.726,663.443 264.715,663.251 C264.715,663.053 264.704,662.739 264.423,662.365 C264.126,661.903 263.296,661.931 262.801,662.167 C262.234,662.376 261.701,662.701 261.145,663.08 C258.962,664.615 256.52,667.024 254.144,669.488 C253.39,670.269 252.653,671.066 251.938,671.847 L249.392,673.019 C241.505,676.66 218.817,678.15 198.797,679.454 C161.034,681.923 143.918,683.788 138.418,691.29 C137.478,692.566 136.482,693.836 135.465,695.101 C137.137,691.647 138.858,688.171 140.695,684.679 C144.248,677.771 147.851,670.742 151.519,663.608 C152.366,661.953 153.23,660.27 154.088,658.592 L156.997,658.961 C161.045,659.467 165.181,659.72 169.295,659.72 C211.007,659.72 253.11,633.446 296.967,591.536 C343.81,595.777 404.657,615.406 450.499,630.212 M261.767,847.605 C260.282,847.484 255.282,845.812 244.975,840.235 C244.64,838.981 244.282,837.804 243.914,836.715 C250.816,836.215 258.01,835.868 265.622,835.797 C266.216,839.971 265.716,844.619 261.767,847.605 M237.358,859.892 C233.348,859.012 218.047,849.261 215.099,847.017 L215.055,847.077 C214.456,844.201 213.735,841.605 213.086,839.52 C216.177,839.234 219.29,838.932 222.447,838.624 C227.463,838.129 232.54,837.634 237.754,837.199 C240.102,843.695 243.122,855.135 237.358,859.892 M207.135,868.626 C204.077,867.411 193.93,861.553 161.815,839.251 C163.85,839.443 165.863,839.647 167.783,839.889 C173.695,840.637 179.795,841 186.422,841 C193.231,841 200.057,840.593 206.998,840.032 C207.817,842.595 208.708,845.895 209.357,849.36 L209.308,849.431 L209.396,849.541 C210.754,856.873 211.007,864.958 207.135,868.626 M80.25,829.824 C79.304,829.23 77.924,828.086 76.928,826.326 C78.705,822.052 80.481,817.388 82.373,812.922 C92.504,810.194 103.746,808.346 105.831,809.677 C107.497,811.982 110.583,820.05 112.975,826.92 C97.278,827.783 84.821,829.246 80.25,829.824 M218.619,697.818 C200.838,700.304 184.046,702.653 175.879,704.825 L161.645,698.715 L172.491,708.934 C169.405,721.138 147.427,748.842 139.749,751.564 L138.495,752.004 L123.871,751.119 L140.112,757.664 L154.275,768.862 C135.729,769.054 119.839,771.48 106.551,776.254 C104.384,774.736 101.953,772.981 99.94,771.414 C101.271,768.389 102.635,765.336 104.06,762.256 C106.744,756.294 109.494,750.184 112.31,743.925 C113.723,740.795 115.148,737.627 116.583,734.432 C117.909,731.649 119.262,728.838 120.615,726.006 C131.692,717.338 140.827,708.125 147.917,698.451 C152.102,694.447 180.675,692.577 199.578,691.339 C219.549,690.03 238.568,688.787 249.738,685.526 C251.102,687.313 252.895,689.623 255.013,692.208 C245.943,694.007 230.725,696.13 218.619,697.818 M209.506,715.077 L208.521,715.055 L197.191,710.336 L206.151,719.109 C203.577,728.932 188.589,747.39 178.634,754.353 L165.693,756.58 L177.342,758.582 L188.881,767.712 C186.131,768.972 184.013,769.797 182.853,769.973 C177.584,769.566 171.055,769.126 163.949,768.928 L146.041,754.765 C157.355,746.592 175.015,722.651 178.26,710.358 C186.433,708.329 203.197,705.986 219.433,703.72 C241.048,700.7 252.835,698.869 259.347,697.351 C261.838,700.233 264.594,703.258 267.514,706.228 C252.037,710.232 222.799,715.451 209.506,715.077 M226.919,725.725 L220.148,720.346 C234.877,718.845 258.819,715.088 272.327,710.925 C274.912,713.328 277.574,715.605 280.252,717.624 C272.596,720.715 242.918,725.962 226.919,725.725 M195.503,763.054 L193.105,763.472 L184.97,757.031 C195.695,748.308 208.73,731.671 211.821,721.001 C213.405,720.929 215.385,720.792 217.629,720.594 L222.799,729.152 C220.759,738.458 206.096,755.772 195.503,763.054 M228.332,731.665 C235.603,731.533 248.666,730.279 260.628,728.294 C252.642,732.694 243.93,737.627 235.015,742.687 C228.239,746.526 220.621,750.855 213.306,754.908 C220.115,747.445 226.308,738.7 228.332,731.665 M64.278,786.143 C55.093,796.296 43.323,803.688 32.301,806.608 C36.575,798.87 45.87,781.479 46.513,775.484 C47.278,768.378 41.662,765.045 35.871,763.246 C38.412,746.746 49.346,718.916 52.888,713.675 C57.992,706.134 104.038,652.416 116.726,645.739 C121.412,643.275 131.103,639.969 144.441,635.476 C143.885,636.532 143.341,637.599 142.791,638.655 L142.087,640.024 L141.35,641.515 L139.997,644.259 C138.204,647.906 136.416,651.536 134.645,655.127 C131.103,662.332 127.616,669.416 124.19,676.39 C120.692,683.287 117.562,690.366 114.389,697.208 C111.232,704.072 108.135,710.798 105.099,717.393 C103.922,719.961 102.767,722.497 101.612,725.027 C96.085,728.706 90.161,732.276 83.82,735.719 L81.543,736.945 L73.012,735.24 L80.613,740.383 L80.734,741.543 C82.274,756.855 76.428,772.695 64.278,786.143 M23.65,806.553 C25.553,798.985 29.238,785.901 34.479,769.076 C39.116,770.556 40.87,772.31 40.595,774.851 C40.117,779.301 31.487,795.933 25.756,806.13 C25.091,806.295 24.376,806.438 23.65,806.553 M290.339,573.26 C247.643,615.346 207.515,641.861 169.295,641.861 C167.788,641.861 166.265,641.817 164.747,641.735 C164.532,641.009 164.329,640.277 164.12,639.546 C176.434,616.627 189.805,593.021 204.116,569.052 L290.339,573.26 z M163.79,526.532 C165.847,518.337 176.478,493.147 195.371,458.128 L209.341,520.075 C204.869,527.313 200.48,534.54 196.19,541.739 C182.677,564.377 170.126,586.817 158.438,608.74 C155.056,573.997 160.446,539.919 163.79,526.532 M229.102,400.378 L244.832,465.108 C240.449,471.603 236.115,478.11 231.863,484.605 L217.101,420.013 C220.924,413.622 224.884,407.11 229.102,400.378 M300.492,388.009 C289.162,402.65 278.179,417.494 267.525,432.416 L251.526,366.113 C261.827,350.966 272.998,335.341 285.059,319.468 L300.492,388.009 z M305.437,293.519 L322.828,360.014 C316.866,367.257 311.003,374.572 305.233,381.937 L289.778,313.308 C294.844,306.741 300.08,300.135 305.437,293.519 M320.254,275.655 C322.712,278.328 326.133,281.21 331.028,281.21 C333.476,281.21 337.073,280.451 340.367,276.821 C344.371,272.404 347.413,264.286 352.033,251.4 C352.231,250.855 352.44,250.289 352.649,249.695 L367.702,307.28 L367.35,307.219 L367.108,308.754 C353.584,323.598 340.356,338.817 327.497,354.338 L310.101,287.81 C313.428,283.762 316.816,279.708 320.254,275.655 M360.596,230.973 C375.468,215.512 390.538,200.91 405.79,187.149 L421.063,253.143 C404.607,269.049 388.443,285.604 372.663,302.687 L356.268,239.993 C357.912,235.818 359.524,232.172 360.596,230.973 M431.464,164.923 L448.002,227.909 C440.643,234.575 433.323,241.39 426.057,248.325 L410.855,182.611 C417.686,176.55 424.556,170.649 431.464,164.923 M451.022,149.265 L465.608,212.267 C461.384,215.93 457.182,219.659 452.974,223.416 L436.524,160.776 C441.342,156.86 446.171,153.016 451.022,149.265 M483.741,125.329 L497.673,185.504 C495.511,187.242 493.35,189.008 491.188,190.773 L477.114,129.965 C479.319,128.409 481.53,126.858 483.741,125.329 M520.69,101.673 L534.116,157.548 C530.607,160.116 527.087,162.729 523.567,165.369 L510.284,107.998 C513.749,105.848 517.214,103.736 520.69,101.673 M568.496,76.087 L579.727,126.335 C576.988,128.084 574.238,129.833 571.483,131.632 C567.759,134.057 564.03,136.538 560.29,139.068 L547.673,86.554 C554.587,82.907 561.528,79.42 568.496,76.087 M601.766,61.474 L610.703,107.327 C602.25,112.31 593.697,117.524 585.068,122.958 L574.018,73.491 C583.225,69.207 592.476,65.208 601.766,61.474 M628.743,51.464 L637.631,92.07 C630.547,95.92 623.386,99.941 616.143,104.148 L607.398,59.246 C614.493,56.491 621.61,53.9 628.743,51.464 M855.954,19.839 C848.76,18.854 841.797,17.93 835.01,17.083 L834.421,14.944 C834.421,14.944 832.623,15.433 829.163,16.363 C801.916,13.074 777.469,11.044 753.203,11.044 C726.302,11.044 701.629,13.657 677.792,19.03 C670.961,20.57 668.541,27.033 667.001,32.527 C662.997,28.738 659.07,25.41 653.95,25.41 C652.96,25.41 651.975,25.548 651.029,25.812 C543.757,55.99 441.71,120.857 347.726,218.592 C343.414,223.075 340.125,231.699 335.219,245.366 C333.674,249.684 331.628,255.382 329.857,259.573 C327.492,257.191 324.335,254.876 319.99,254.876 C317.955,254.876 314.028,255.47 310.601,259.457 C277.31,298.194 248.468,337.733 224.625,374.171 L223.25,376.277 C210.721,395.516 199.6,413.853 189.964,430.722 L189.414,431.684 C164.637,475.184 149.836,508.723 146.465,522.198 C142.461,538.214 135.784,581.752 142.389,623.563 C142.241,623.612 142.087,623.662 141.949,623.706 C126.78,628.821 116.638,632.198 110.94,635.201 C94.941,643.627 46.557,701.085 42.548,707.009 C37.746,714.109 25.734,744.981 23.391,763.158 C21.389,769.549 9.317,806.9 9.317,813.39 L9.317,818.318 L14.624,819.236 C16.973,819.676 20.157,819.907 22.682,819.907 C39.215,819.907 58.058,810.409 72.341,795.064 C70.856,798.771 69.327,802.428 67.914,805.965 C67.798,806.245 67.661,806.504 67.556,806.773 C67.27,807.224 66.951,807.648 66.676,808.11 L66.225,809.023 C65.406,811.151 64.795,813.214 64.377,815.221 C63.69,817.141 62.997,819.049 62.331,820.908 C58.971,830.467 56.1,839.333 53.608,847.374 C48.713,863.522 46.112,876.75 44.286,885.649 C42.597,894.614 42.003,899.476 42.003,899.476 C42.003,899.476 44.583,895.268 48.862,887.244 C50.919,883.207 53.52,878.251 56.325,872.355 C59.07,866.437 62.221,859.628 65.752,852.011 C67.705,847.748 69.74,843.194 71.819,838.404 C74.409,840.483 76.73,841.396 77.165,841.561 L78.556,842.072 L80.036,841.863 C80.305,841.83 107.211,838.145 136.427,838.145 C141.267,838.145 145.86,838.266 150.282,838.47 C194.777,869.605 204.578,874.814 207.96,874.814 C208.769,874.814 209.209,874.511 209.671,874.203 C215.512,870.155 216.733,862.499 216.199,854.997 C222.486,859.265 232.925,865.717 238.15,865.717 C238.969,865.711 239.657,865.557 240.19,865.205 C245.96,861.201 247.054,854.337 246.394,847.721 C255.513,852.396 259.847,853.6 262.152,853.6 C263.549,853.6 264.203,853.16 264.748,852.797 C270.902,848.524 272.266,841.94 271.634,835.819 C282.287,835.923 292.677,836.589 303.253,837.903 C311.833,838.965 320.1,839.509 327.833,839.509 C357.412,839.504 377.272,831.716 396.473,824.186 C405.977,820.452 415.805,816.602 426.822,813.687 C437.646,810.827 447.084,809.589 456.203,808.396 C477.867,805.563 496.716,803.05 514.723,778.333 L514.921,778.459 C514.921,778.459 515.08,778.096 515.361,777.48 C515.399,777.431 515.438,777.387 515.471,777.337 L626.34,787.771 L627.737,783.09 C649.951,708.752 617.914,636.581 616.544,633.551 L614.817,629.75 L518.424,637.164 C506.511,635.795 482.218,627.946 454.151,618.882 C410.916,604.912 354.508,586.724 307.945,580.767 C351.978,536.459 397.87,477.488 446.979,414.392 C496.424,350.845 547.563,285.137 604.257,223.762 C612.018,215.353 604.411,205.266 598.851,197.907 C598.262,197.126 597.542,196.169 596.827,195.19 C600.523,194.975 605.099,194.97 608.377,194.97 C622.781,194.953 631.878,194.684 637.01,189.508 C711.183,114.796 779.333,67.755 857.994,37.004 L889.982,24.492 L855.954,19.839" fill="#0B0B09"/>
  </g>
</svg>
